<mxfile host="app.diagrams.net" modified="2022-09-24T13:14:15.339Z" agent="5.0 (Windows NT 10.0; Win64; x64) AppleWebKit/537.36 (KHTML, like Gecko) Chrome/105.0.0.0 Safari/537.36" etag="a-TffGUDtog0PsFU3u_k" version="20.3.2" type="github">
  <diagram id="6a731a19-8d31-9384-78a2-239565b7b9f0" name="Page-1">
    <mxGraphModel dx="1038" dy="571" grid="1" gridSize="10" guides="1" tooltips="1" connect="1" arrows="1" fold="1" page="1" pageScale="1" pageWidth="1169" pageHeight="827" background="#003469" math="0" shadow="0">
      <root>
        <mxCell id="0" />
        <mxCell id="1" parent="0" />
        <mxCell id="-AsEMjzGTClLhq3RKt_I-2134" value="" style="rounded=1;whiteSpace=wrap;html=1;dashed=1;strokeColor=none;strokeWidth=2;fillColor=#E6E6E6;fontFamily=Verdana;fontSize=12;fontColor=#00BEF2" parent="1" vertex="1">
          <mxGeometry x="3630" y="123" width="165" height="670" as="geometry" />
        </mxCell>
        <mxCell id="-AsEMjzGTClLhq3RKt_I-2102" value="" style="rounded=1;whiteSpace=wrap;html=1;dashed=1;strokeColor=none;strokeWidth=2;fillColor=#E6E6E6;fontFamily=Verdana;fontSize=12;fontColor=#00BEF2" parent="1" vertex="1">
          <mxGeometry x="2550" y="120.5" width="165" height="670" as="geometry" />
        </mxCell>
        <mxCell id="-AsEMjzGTClLhq3RKt_I-2098" value="" style="rounded=1;whiteSpace=wrap;html=1;dashed=1;strokeColor=none;strokeWidth=2;fillColor=#E6E6E6;fontFamily=Verdana;fontSize=12;fontColor=#00BEF2" parent="1" vertex="1">
          <mxGeometry x="2190" y="120" width="165" height="670" as="geometry" />
        </mxCell>
        <mxCell id="-AsEMjzGTClLhq3RKt_I-2096" value="" style="rounded=1;whiteSpace=wrap;html=1;dashed=1;strokeColor=none;strokeWidth=2;fillColor=#E6E6E6;fontFamily=Verdana;fontSize=12;fontColor=#00BEF2" parent="1" vertex="1">
          <mxGeometry x="2010" y="120" width="165" height="670" as="geometry" />
        </mxCell>
        <mxCell id="-AsEMjzGTClLhq3RKt_I-2094" value="" style="rounded=1;whiteSpace=wrap;html=1;dashed=1;strokeColor=none;strokeWidth=2;fillColor=#E6E6E6;fontFamily=Verdana;fontSize=12;fontColor=#00BEF2" parent="1" vertex="1">
          <mxGeometry x="1830" y="120" width="165" height="670" as="geometry" />
        </mxCell>
        <mxCell id="-AsEMjzGTClLhq3RKt_I-2092" value="" style="rounded=1;whiteSpace=wrap;html=1;dashed=1;strokeColor=none;strokeWidth=2;fillColor=#E6E6E6;fontFamily=Verdana;fontSize=12;fontColor=#00BEF2" parent="1" vertex="1">
          <mxGeometry x="1650" y="120" width="165" height="670" as="geometry" />
        </mxCell>
        <mxCell id="-AsEMjzGTClLhq3RKt_I-2090" value="" style="rounded=1;whiteSpace=wrap;html=1;dashed=1;strokeColor=none;strokeWidth=2;fillColor=#E6E6E6;fontFamily=Verdana;fontSize=12;fontColor=#00BEF2" parent="1" vertex="1">
          <mxGeometry x="1470" y="120" width="165" height="670" as="geometry" />
        </mxCell>
        <mxCell id="2019" value="" style="rounded=1;whiteSpace=wrap;html=1;dashed=1;strokeColor=none;strokeWidth=2;fillColor=#E6E6E6;fontFamily=Verdana;fontSize=12;fontColor=#00BEF2" parent="1" vertex="1">
          <mxGeometry x="40" y="120" width="165" height="670" as="geometry" />
        </mxCell>
        <mxCell id="2020" value="" style="rounded=1;whiteSpace=wrap;html=1;dashed=1;strokeColor=none;strokeWidth=2;fillColor=#E6E6E6;fontFamily=Verdana;fontSize=12;fontColor=#00BEF2" parent="1" vertex="1">
          <mxGeometry x="220" y="120" width="165" height="670" as="geometry" />
        </mxCell>
        <mxCell id="2021" value="" style="rounded=1;whiteSpace=wrap;html=1;dashed=1;strokeColor=none;strokeWidth=2;fillColor=#E6E6E6;fontFamily=Verdana;fontSize=12;fontColor=#00BEF2" parent="1" vertex="1">
          <mxGeometry x="400" y="120" width="165" height="670" as="geometry" />
        </mxCell>
        <mxCell id="2022" value="" style="rounded=1;whiteSpace=wrap;html=1;dashed=1;strokeColor=none;strokeWidth=2;fillColor=#E6E6E6;fontFamily=Verdana;fontSize=12;fontColor=#00BEF2" parent="1" vertex="1">
          <mxGeometry x="580" y="120" width="165" height="670" as="geometry" />
        </mxCell>
        <mxCell id="2023" value="" style="rounded=1;whiteSpace=wrap;html=1;dashed=1;strokeColor=none;strokeWidth=2;fillColor=#E6E6E6;fontFamily=Verdana;fontSize=12;fontColor=#00BEF2" parent="1" vertex="1">
          <mxGeometry x="760" y="120" width="165" height="670" as="geometry" />
        </mxCell>
        <mxCell id="2024" value="" style="rounded=1;whiteSpace=wrap;html=1;dashed=1;strokeColor=none;strokeWidth=2;fillColor=#E6E6E6;fontFamily=Verdana;fontSize=12;fontColor=#00BEF2" parent="1" vertex="1">
          <mxGeometry x="940" y="120" width="165" height="670" as="geometry" />
        </mxCell>
        <mxCell id="2025" value="W38" style="whiteSpace=wrap;html=1;dashed=1;strokeColor=none;strokeWidth=2;fillColor=#3399FF;fontFamily=Helvetica;fontSize=18;fontColor=#FFFFFF;fontStyle=1" parent="1" vertex="1">
          <mxGeometry x="40" y="120" width="165" height="60" as="geometry" />
        </mxCell>
        <mxCell id="2026" value="W39" style="whiteSpace=wrap;html=1;dashed=1;strokeColor=none;strokeWidth=2;fillColor=#3399FF;fontFamily=Helvetica;fontSize=18;fontColor=#FFFFFF;fontStyle=1" parent="1" vertex="1">
          <mxGeometry x="220" y="120" width="165" height="60" as="geometry" />
        </mxCell>
        <mxCell id="2027" value="W40" style="whiteSpace=wrap;html=1;dashed=1;strokeColor=none;strokeWidth=2;fillColor=#3399FF;fontFamily=Helvetica;fontSize=18;fontColor=#FFFFFF;fontStyle=1" parent="1" vertex="1">
          <mxGeometry x="400" y="120" width="165" height="60" as="geometry" />
        </mxCell>
        <mxCell id="2028" value="W41" style="whiteSpace=wrap;html=1;dashed=1;strokeColor=none;strokeWidth=2;fillColor=#3399FF;fontFamily=Helvetica;fontSize=18;fontColor=#FFFFFF;fontStyle=1" parent="1" vertex="1">
          <mxGeometry x="580" y="120" width="165" height="60" as="geometry" />
        </mxCell>
        <mxCell id="2029" value="W42" style="whiteSpace=wrap;html=1;dashed=1;strokeColor=none;strokeWidth=2;fillColor=#3399FF;fontFamily=Helvetica;fontSize=18;fontColor=#FFFFFF;fontStyle=1" parent="1" vertex="1">
          <mxGeometry x="760" y="120" width="165" height="60" as="geometry" />
        </mxCell>
        <mxCell id="2030" value="W43" style="whiteSpace=wrap;html=1;dashed=1;strokeColor=none;strokeWidth=2;fillColor=#3399FF;fontFamily=Helvetica;fontSize=18;fontColor=#FFFFFF;fontStyle=1" parent="1" vertex="1">
          <mxGeometry x="940" y="120" width="165" height="60" as="geometry" />
        </mxCell>
        <mxCell id="2031" value="" style="shape=mxgraph.arrows.two_way_arrow_horizontal;html=1;verticalLabelPosition=bottom;verticalAlign=top;strokeWidth=2;strokeColor=none;dashed=1;fillColor=#FFFFFF;fontFamily=Verdana;fontSize=12;fontColor=#00BEF2" parent="1" vertex="1">
          <mxGeometry x="180" y="131" width="67" height="39" as="geometry" />
        </mxCell>
        <mxCell id="2032" value="" style="shape=mxgraph.arrows.two_way_arrow_horizontal;html=1;verticalLabelPosition=bottom;verticalAlign=top;strokeWidth=2;strokeColor=none;dashed=1;fillColor=#FFFFFF;fontFamily=Verdana;fontSize=12;fontColor=#00BEF2" parent="1" vertex="1">
          <mxGeometry x="360" y="131" width="67" height="39" as="geometry" />
        </mxCell>
        <mxCell id="2033" value="" style="shape=mxgraph.arrows.two_way_arrow_horizontal;html=1;verticalLabelPosition=bottom;verticalAlign=top;strokeWidth=2;strokeColor=none;dashed=1;fillColor=#FFFFFF;fontFamily=Verdana;fontSize=12;fontColor=#00BEF2" parent="1" vertex="1">
          <mxGeometry x="540" y="131" width="67" height="39" as="geometry" />
        </mxCell>
        <mxCell id="2034" value="" style="shape=mxgraph.arrows.two_way_arrow_horizontal;html=1;verticalLabelPosition=bottom;verticalAlign=top;strokeWidth=2;strokeColor=none;dashed=1;fillColor=#FFFFFF;fontFamily=Verdana;fontSize=12;fontColor=#00BEF2" parent="1" vertex="1">
          <mxGeometry x="720" y="131" width="67" height="39" as="geometry" />
        </mxCell>
        <mxCell id="2035" value="" style="shape=mxgraph.arrows.two_way_arrow_horizontal;html=1;verticalLabelPosition=bottom;verticalAlign=top;strokeWidth=2;strokeColor=none;dashed=1;fillColor=#FFFFFF;fontFamily=Verdana;fontSize=12;fontColor=#00BEF2" parent="1" vertex="1">
          <mxGeometry x="900" y="131" width="67" height="39" as="geometry" />
        </mxCell>
        <mxCell id="2047" value="THE JOURNEY HIGH LEVEL VIEW" style="text;html=1;strokeColor=none;fillColor=none;align=center;verticalAlign=middle;whiteSpace=wrap;overflow=hidden;dashed=1;fontSize=36;fontColor=#FFFFFF;fontFamily=Helvetica;fontStyle=1" parent="1" vertex="1">
          <mxGeometry x="530" y="50" width="1060" height="50" as="geometry" />
        </mxCell>
        <mxCell id="2075" value="" style="arrow;html=1;endArrow=block;endFill=1;strokeColor=none;strokeWidth=4;fontFamily=Helvetica;fontSize=36;fontColor=#FFB366;fillColor=#FFB366;" parent="1" edge="1">
          <mxGeometry width="100" height="100" relative="1" as="geometry">
            <mxPoint x="167" y="283" as="sourcePoint" />
            <mxPoint x="247" y="283" as="targetPoint" />
          </mxGeometry>
        </mxCell>
        <mxCell id="-AsEMjzGTClLhq3RKt_I-2086" value="" style="rounded=1;whiteSpace=wrap;html=1;dashed=1;strokeColor=none;strokeWidth=2;fillColor=#E6E6E6;fontFamily=Verdana;fontSize=12;fontColor=#00BEF2" parent="1" vertex="1">
          <mxGeometry x="1120" y="120" width="165" height="670" as="geometry" />
        </mxCell>
        <mxCell id="-AsEMjzGTClLhq3RKt_I-2085" value="W44" style="whiteSpace=wrap;html=1;dashed=1;strokeColor=none;strokeWidth=2;fillColor=#3399FF;fontFamily=Helvetica;fontSize=18;fontColor=#FFFFFF;fontStyle=1" parent="1" vertex="1">
          <mxGeometry x="1120" y="120" width="165" height="60" as="geometry" />
        </mxCell>
        <mxCell id="-AsEMjzGTClLhq3RKt_I-2088" value="" style="rounded=1;whiteSpace=wrap;html=1;dashed=1;strokeColor=none;strokeWidth=2;fillColor=#E6E6E6;fontFamily=Verdana;fontSize=12;fontColor=#00BEF2" parent="1" vertex="1">
          <mxGeometry x="1293" y="120" width="165" height="670" as="geometry" />
        </mxCell>
        <mxCell id="-AsEMjzGTClLhq3RKt_I-2087" value="W45" style="whiteSpace=wrap;html=1;dashed=1;strokeColor=none;strokeWidth=2;fillColor=#3399FF;fontFamily=Helvetica;fontSize=18;fontColor=#FFFFFF;fontStyle=1" parent="1" vertex="1">
          <mxGeometry x="1293" y="120" width="165" height="60" as="geometry" />
        </mxCell>
        <mxCell id="-AsEMjzGTClLhq3RKt_I-2089" value="W46" style="whiteSpace=wrap;html=1;dashed=1;strokeColor=none;strokeWidth=2;fillColor=#3399FF;fontFamily=Helvetica;fontSize=18;fontColor=#FFFFFF;fontStyle=1" parent="1" vertex="1">
          <mxGeometry x="1470" y="120" width="165" height="60" as="geometry" />
        </mxCell>
        <mxCell id="-AsEMjzGTClLhq3RKt_I-2091" value="W47" style="whiteSpace=wrap;html=1;dashed=1;strokeColor=none;strokeWidth=2;fillColor=#3399FF;fontFamily=Helvetica;fontSize=18;fontColor=#FFFFFF;fontStyle=1" parent="1" vertex="1">
          <mxGeometry x="1650" y="120" width="165" height="60" as="geometry" />
        </mxCell>
        <mxCell id="-AsEMjzGTClLhq3RKt_I-2093" value="W48" style="whiteSpace=wrap;html=1;dashed=1;strokeColor=none;strokeWidth=2;fillColor=#3399FF;fontFamily=Helvetica;fontSize=18;fontColor=#FFFFFF;fontStyle=1" parent="1" vertex="1">
          <mxGeometry x="1830" y="120" width="165" height="60" as="geometry" />
        </mxCell>
        <mxCell id="-AsEMjzGTClLhq3RKt_I-2095" value="W49" style="whiteSpace=wrap;html=1;dashed=1;strokeColor=none;strokeWidth=2;fillColor=#3399FF;fontFamily=Helvetica;fontSize=18;fontColor=#FFFFFF;fontStyle=1" parent="1" vertex="1">
          <mxGeometry x="2010" y="120" width="165" height="60" as="geometry" />
        </mxCell>
        <mxCell id="-AsEMjzGTClLhq3RKt_I-2099" value="" style="rounded=1;whiteSpace=wrap;html=1;dashed=1;strokeColor=none;strokeWidth=2;fillColor=#E6E6E6;fontFamily=Verdana;fontSize=12;fontColor=#00BEF2" parent="1" vertex="1">
          <mxGeometry x="2370" y="120" width="165" height="670" as="geometry" />
        </mxCell>
        <mxCell id="-AsEMjzGTClLhq3RKt_I-2097" value="W51" style="whiteSpace=wrap;html=1;dashed=1;strokeColor=none;strokeWidth=2;fillColor=#3399FF;fontFamily=Helvetica;fontSize=18;fontColor=#FFFFFF;fontStyle=1" parent="1" vertex="1">
          <mxGeometry x="2370" y="120.5" width="165" height="60" as="geometry" />
        </mxCell>
        <mxCell id="-AsEMjzGTClLhq3RKt_I-2100" value="W50" style="whiteSpace=wrap;html=1;dashed=1;strokeColor=none;strokeWidth=2;fillColor=#3399FF;fontFamily=Helvetica;fontSize=18;fontColor=#FFFFFF;fontStyle=1" parent="1" vertex="1">
          <mxGeometry x="2190" y="120" width="165" height="60" as="geometry" />
        </mxCell>
        <mxCell id="-AsEMjzGTClLhq3RKt_I-2101" value="W52" style="whiteSpace=wrap;html=1;dashed=1;strokeColor=none;strokeWidth=2;fillColor=#3399FF;fontFamily=Helvetica;fontSize=18;fontColor=#FFFFFF;fontStyle=1" parent="1" vertex="1">
          <mxGeometry x="2550" y="121" width="165" height="60" as="geometry" />
        </mxCell>
        <mxCell id="-AsEMjzGTClLhq3RKt_I-2104" value="Bug Clenaup" style="text;html=1;strokeColor=default;fillColor=none;align=center;verticalAlign=middle;whiteSpace=wrap;rounded=0;" parent="1" vertex="1">
          <mxGeometry x="50" y="200" width="140" height="130" as="geometry" />
        </mxCell>
        <mxCell id="-AsEMjzGTClLhq3RKt_I-2105" value="Levels Complete&lt;br&gt;-Add the spikes" style="text;html=1;strokeColor=default;fillColor=none;align=center;verticalAlign=middle;whiteSpace=wrap;rounded=0;" parent="1" vertex="1">
          <mxGeometry x="232.5" y="198" width="140" height="130" as="geometry" />
        </mxCell>
        <mxCell id="-AsEMjzGTClLhq3RKt_I-2106" value="Full Lunch" style="text;html=1;strokeColor=#666666;fillColor=#66FFB3;align=center;verticalAlign=middle;whiteSpace=wrap;rounded=0;fontColor=#333333;" parent="1" vertex="1">
          <mxGeometry x="412.5" y="198" width="140" height="130" as="geometry" />
        </mxCell>
        <mxCell id="2076" value="" style="arrow;html=1;endArrow=block;endFill=1;strokeColor=none;strokeWidth=4;fontFamily=Helvetica;fontSize=36;fontColor=#FFB366;fillColor=#FFB366;opacity=100" parent="1" edge="1">
          <mxGeometry width="100" height="100" relative="1" as="geometry">
            <mxPoint x="353.5" y="273.46" as="sourcePoint" />
            <mxPoint x="433.5" y="273.46" as="targetPoint" />
          </mxGeometry>
        </mxCell>
        <mxCell id="-AsEMjzGTClLhq3RKt_I-2107" value="New Game Map Out PLan" style="text;html=1;strokeColor=#d6b656;fillColor=#fff2cc;align=center;verticalAlign=middle;whiteSpace=wrap;rounded=0;" parent="1" vertex="1">
          <mxGeometry x="592.5" y="331" width="140" height="130" as="geometry" />
        </mxCell>
        <mxCell id="-AsEMjzGTClLhq3RKt_I-2108" value="Game DEV" style="text;html=1;strokeColor=default;fillColor=none;align=center;verticalAlign=middle;whiteSpace=wrap;rounded=0;" parent="1" vertex="1">
          <mxGeometry x="773.5" y="330" width="140" height="130" as="geometry" />
        </mxCell>
        <mxCell id="-AsEMjzGTClLhq3RKt_I-2109" value="Game DEV" style="text;html=1;strokeColor=default;fillColor=none;align=center;verticalAlign=middle;whiteSpace=wrap;rounded=0;" parent="1" vertex="1">
          <mxGeometry x="952.5" y="328" width="140" height="130" as="geometry" />
        </mxCell>
        <mxCell id="-AsEMjzGTClLhq3RKt_I-2110" value="Game DEV" style="text;html=1;strokeColor=default;fillColor=none;align=center;verticalAlign=middle;whiteSpace=wrap;rounded=0;" parent="1" vertex="1">
          <mxGeometry x="1132.5" y="330" width="140" height="130" as="geometry" />
        </mxCell>
        <mxCell id="-AsEMjzGTClLhq3RKt_I-2111" value="Game DEV" style="text;html=1;strokeColor=default;fillColor=none;align=center;verticalAlign=middle;whiteSpace=wrap;rounded=0;" parent="1" vertex="1">
          <mxGeometry x="1305.5" y="328" width="140" height="130" as="geometry" />
        </mxCell>
        <mxCell id="-AsEMjzGTClLhq3RKt_I-2112" value="6 Away.NET Planning" style="text;html=1;strokeColor=default;fillColor=none;align=center;verticalAlign=middle;whiteSpace=wrap;rounded=0;" parent="1" vertex="1">
          <mxGeometry x="1840" y="461" width="140" height="130" as="geometry" />
        </mxCell>
        <mxCell id="-AsEMjzGTClLhq3RKt_I-2113" value="Play Store Testing" style="text;html=1;strokeColor=default;fillColor=#FFCC99;align=center;verticalAlign=middle;whiteSpace=wrap;rounded=0;" parent="1" vertex="1">
          <mxGeometry x="3642.5" y="610" width="140" height="130" as="geometry" />
        </mxCell>
        <mxCell id="-AsEMjzGTClLhq3RKt_I-2114" value="Full Lunch" style="text;html=1;strokeColor=#666666;fillColor=#66FFB3;align=center;verticalAlign=middle;whiteSpace=wrap;rounded=0;fontColor=#333333;" parent="1" vertex="1">
          <mxGeometry x="1662.5" y="328" width="140" height="130" as="geometry" />
        </mxCell>
        <mxCell id="-AsEMjzGTClLhq3RKt_I-2115" value="6 Away development" style="text;html=1;strokeColor=default;fillColor=none;align=center;verticalAlign=middle;whiteSpace=wrap;rounded=0;" parent="1" vertex="1">
          <mxGeometry x="2022.5" y="461" width="140" height="130" as="geometry" />
        </mxCell>
        <mxCell id="-AsEMjzGTClLhq3RKt_I-2116" value="Full Lunch" style="text;html=1;strokeColor=#666666;fillColor=#66FFB3;align=center;verticalAlign=middle;whiteSpace=wrap;rounded=0;fontColor=#333333;" parent="1" vertex="1">
          <mxGeometry x="2202.5" y="461" width="140" height="130" as="geometry" />
        </mxCell>
        <mxCell id="-AsEMjzGTClLhq3RKt_I-2118" value="" style="rounded=1;whiteSpace=wrap;html=1;dashed=1;strokeColor=none;strokeWidth=2;fillColor=#E6E6E6;fontFamily=Verdana;fontSize=12;fontColor=#00BEF2" parent="1" vertex="1">
          <mxGeometry x="2730" y="120.5" width="165" height="670" as="geometry" />
        </mxCell>
        <mxCell id="-AsEMjzGTClLhq3RKt_I-2117" value="W01" style="whiteSpace=wrap;html=1;dashed=1;strokeColor=none;strokeWidth=2;fillColor=#3399FF;fontFamily=Helvetica;fontSize=18;fontColor=#FFFFFF;fontStyle=1" parent="1" vertex="1">
          <mxGeometry x="2730" y="121" width="165" height="60" as="geometry" />
        </mxCell>
        <mxCell id="-AsEMjzGTClLhq3RKt_I-2120" value="" style="rounded=1;whiteSpace=wrap;html=1;dashed=1;strokeColor=none;strokeWidth=2;fillColor=#E6E6E6;fontFamily=Verdana;fontSize=12;fontColor=#00BEF2" parent="1" vertex="1">
          <mxGeometry x="2910" y="121" width="165" height="670" as="geometry" />
        </mxCell>
        <mxCell id="-AsEMjzGTClLhq3RKt_I-2119" value="W02" style="whiteSpace=wrap;html=1;dashed=1;strokeColor=none;strokeWidth=2;fillColor=#3399FF;fontFamily=Helvetica;fontSize=18;fontColor=#FFFFFF;fontStyle=1" parent="1" vertex="1">
          <mxGeometry x="2910" y="121.5" width="165" height="60" as="geometry" />
        </mxCell>
        <mxCell id="-AsEMjzGTClLhq3RKt_I-2122" value="" style="rounded=1;whiteSpace=wrap;html=1;dashed=1;strokeColor=none;strokeWidth=2;fillColor=#E6E6E6;fontFamily=Verdana;fontSize=12;fontColor=#00BEF2" parent="1" vertex="1">
          <mxGeometry x="3090" y="121.5" width="165" height="670" as="geometry" />
        </mxCell>
        <mxCell id="-AsEMjzGTClLhq3RKt_I-2121" value="W03" style="whiteSpace=wrap;html=1;dashed=1;strokeColor=none;strokeWidth=2;fillColor=#3399FF;fontFamily=Helvetica;fontSize=18;fontColor=#FFFFFF;fontStyle=1" parent="1" vertex="1">
          <mxGeometry x="3090" y="122" width="165" height="60" as="geometry" />
        </mxCell>
        <mxCell id="-AsEMjzGTClLhq3RKt_I-2124" value="" style="rounded=1;whiteSpace=wrap;html=1;dashed=1;strokeColor=none;strokeWidth=2;fillColor=#E6E6E6;fontFamily=Verdana;fontSize=12;fontColor=#00BEF2" parent="1" vertex="1">
          <mxGeometry x="3270" y="122" width="165" height="670" as="geometry" />
        </mxCell>
        <mxCell id="-AsEMjzGTClLhq3RKt_I-2123" value="W04" style="whiteSpace=wrap;html=1;dashed=1;strokeColor=none;strokeWidth=2;fillColor=#3399FF;fontFamily=Helvetica;fontSize=18;fontColor=#FFFFFF;fontStyle=1" parent="1" vertex="1">
          <mxGeometry x="3270" y="122.5" width="165" height="60" as="geometry" />
        </mxCell>
        <mxCell id="-AsEMjzGTClLhq3RKt_I-2125" value="6Away Evolution Planning" style="text;html=1;strokeColor=#d6b656;fillColor=#fff2cc;align=center;verticalAlign=middle;whiteSpace=wrap;rounded=0;" parent="1" vertex="1">
          <mxGeometry x="2382.5" y="610" width="140" height="130" as="geometry" />
        </mxCell>
        <mxCell id="-AsEMjzGTClLhq3RKt_I-2126" value="Game DEV" style="text;html=1;strokeColor=default;fillColor=none;align=center;verticalAlign=middle;whiteSpace=wrap;rounded=0;" parent="1" vertex="1">
          <mxGeometry x="2562.5" y="610" width="140" height="130" as="geometry" />
        </mxCell>
        <mxCell id="-AsEMjzGTClLhq3RKt_I-2127" value="Game DEV" style="text;html=1;strokeColor=default;fillColor=none;align=center;verticalAlign=middle;whiteSpace=wrap;rounded=0;" parent="1" vertex="1">
          <mxGeometry x="2742.5" y="610" width="140" height="130" as="geometry" />
        </mxCell>
        <mxCell id="-AsEMjzGTClLhq3RKt_I-2128" value="Game DEV" style="text;html=1;strokeColor=default;fillColor=none;align=center;verticalAlign=middle;whiteSpace=wrap;rounded=0;" parent="1" vertex="1">
          <mxGeometry x="2923" y="610" width="140" height="130" as="geometry" />
        </mxCell>
        <mxCell id="-AsEMjzGTClLhq3RKt_I-2129" value="Game DEV" style="text;html=1;strokeColor=default;fillColor=none;align=center;verticalAlign=middle;whiteSpace=wrap;rounded=0;" parent="1" vertex="1">
          <mxGeometry x="3102.5" y="610" width="140" height="130" as="geometry" />
        </mxCell>
        <mxCell id="-AsEMjzGTClLhq3RKt_I-2130" value="Game DEV" style="text;html=1;strokeColor=default;fillColor=none;align=center;verticalAlign=middle;whiteSpace=wrap;rounded=0;" parent="1" vertex="1">
          <mxGeometry x="3282.5" y="610" width="140" height="130" as="geometry" />
        </mxCell>
        <mxCell id="-AsEMjzGTClLhq3RKt_I-2132" value="" style="rounded=1;whiteSpace=wrap;html=1;dashed=1;strokeColor=none;strokeWidth=2;fillColor=#E6E6E6;fontFamily=Verdana;fontSize=12;fontColor=#00BEF2" parent="1" vertex="1">
          <mxGeometry x="3450" y="122.5" width="165" height="670" as="geometry" />
        </mxCell>
        <mxCell id="-AsEMjzGTClLhq3RKt_I-2131" value="W05" style="whiteSpace=wrap;html=1;dashed=1;strokeColor=none;strokeWidth=2;fillColor=#3399FF;fontFamily=Helvetica;fontSize=18;fontColor=#FFFFFF;fontStyle=1" parent="1" vertex="1">
          <mxGeometry x="3450" y="123" width="165" height="60" as="geometry" />
        </mxCell>
        <mxCell id="-AsEMjzGTClLhq3RKt_I-2133" value="First Prototype" style="text;html=1;strokeColor=default;fillColor=none;align=center;verticalAlign=middle;whiteSpace=wrap;rounded=0;" parent="1" vertex="1">
          <mxGeometry x="3462.5" y="610" width="140" height="130" as="geometry" />
        </mxCell>
        <mxCell id="-AsEMjzGTClLhq3RKt_I-2135" value="W06" style="whiteSpace=wrap;html=1;dashed=1;strokeColor=none;strokeWidth=2;fillColor=#3399FF;fontFamily=Helvetica;fontSize=18;fontColor=#FFFFFF;fontStyle=1" parent="1" vertex="1">
          <mxGeometry x="3630" y="123" width="165" height="60" as="geometry" />
        </mxCell>
        <mxCell id="-AsEMjzGTClLhq3RKt_I-2136" value="W06" style="whiteSpace=wrap;html=1;dashed=1;strokeColor=none;strokeWidth=2;fillColor=#3399FF;fontFamily=Helvetica;fontSize=18;fontColor=#FFFFFF;fontStyle=1" parent="1" vertex="1">
          <mxGeometry x="3810" y="123" width="165" height="60" as="geometry" />
        </mxCell>
        <mxCell id="-AsEMjzGTClLhq3RKt_I-2137" value="" style="rounded=1;whiteSpace=wrap;html=1;dashed=1;strokeColor=none;strokeWidth=2;fillColor=#E6E6E6;fontFamily=Verdana;fontSize=12;fontColor=#00BEF2" parent="1" vertex="1">
          <mxGeometry x="3810" y="123" width="165" height="670" as="geometry" />
        </mxCell>
        <mxCell id="-AsEMjzGTClLhq3RKt_I-2138" value="W07" style="whiteSpace=wrap;html=1;dashed=1;strokeColor=none;strokeWidth=2;fillColor=#3399FF;fontFamily=Helvetica;fontSize=18;fontColor=#FFFFFF;fontStyle=1" parent="1" vertex="1">
          <mxGeometry x="3810" y="123" width="165" height="60" as="geometry" />
        </mxCell>
        <mxCell id="-AsEMjzGTClLhq3RKt_I-2139" value="Play Store Testing" style="text;html=1;strokeColor=default;fillColor=#FFCC99;align=center;verticalAlign=middle;whiteSpace=wrap;rounded=0;" parent="1" vertex="1">
          <mxGeometry x="3822.5" y="610" width="140" height="130" as="geometry" />
        </mxCell>
        <mxCell id="-AsEMjzGTClLhq3RKt_I-2140" value="" style="rounded=1;whiteSpace=wrap;html=1;dashed=1;strokeColor=none;strokeWidth=2;fillColor=#E6E6E6;fontFamily=Verdana;fontSize=12;fontColor=#00BEF2" parent="1" vertex="1">
          <mxGeometry x="3990" y="123" width="165" height="670" as="geometry" />
        </mxCell>
        <mxCell id="-AsEMjzGTClLhq3RKt_I-2141" value="W07" style="whiteSpace=wrap;html=1;dashed=1;strokeColor=none;strokeWidth=2;fillColor=#3399FF;fontFamily=Helvetica;fontSize=18;fontColor=#FFFFFF;fontStyle=1" parent="1" vertex="1">
          <mxGeometry x="3990" y="123" width="165" height="60" as="geometry" />
        </mxCell>
        <mxCell id="-AsEMjzGTClLhq3RKt_I-2142" value="Full Lunch" style="text;html=1;strokeColor=#666666;fillColor=#66FFB3;align=center;verticalAlign=middle;whiteSpace=wrap;rounded=0;fontColor=#333333;" parent="1" vertex="1">
          <mxGeometry x="4002.5" y="610" width="140" height="130" as="geometry" />
        </mxCell>
        <mxCell id="atMQB4m9rtUPAIJ2uezL-2076" value="Game DEV" style="text;html=1;strokeColor=default;fillColor=none;align=center;verticalAlign=middle;whiteSpace=wrap;rounded=0;" vertex="1" parent="1">
          <mxGeometry x="1482.5" y="331" width="140" height="130" as="geometry" />
        </mxCell>
      </root>
    </mxGraphModel>
  </diagram>
</mxfile>
